<svg width="36" height="30" viewBox="0 0 36 30" fill="none" xmlns="http://www.w3.org/2000/svg">
    <g clip-path="url(#clip0_297_77)">
        <path d="M28.5942 6.5499C27.8586 6.5499 27.2026 6.84818 26.6952 7.30583L26.6769 7.28744L26.5872 7.37938C26.5872 7.37938 26.5709 7.39572 26.5628 7.40389L15.1243 19.1311C14.0199 20.2629 14.0403 22.0772 15.1691 23.1845C16.2979 24.2918 18.1072 24.2714 19.2094 23.1396L25.7356 16.4485V23.9772H31.4507V9.41427C31.4507 7.83089 30.1712 6.54785 28.5921 6.54785L28.5942 6.5499Z" fill="#F7F7F8"/>
        <path d="M15.3892 10.2869C14.2604 9.17955 12.4511 9.19998 11.3488 10.3318L0.814934 21.1315C-0.289391 22.2633 -0.269016 24.0775 0.859759 25.1828C1.98853 26.2902 3.79783 26.2698 4.90012 25.1379L15.434 14.3383C16.5383 13.2064 16.5179 11.3922 15.3892 10.2869Z" fill="#2EFFAA"/>
        <path d="M18.2806 11.339C18.3397 11.5351 18.5903 11.5351 18.6494 11.339C19.4644 8.64215 21.5039 7.66557 22.7081 7.32029C22.8955 7.26513 22.8955 7.00157 22.7081 6.94641C21.5039 6.59909 19.4644 5.62251 18.6494 2.92566C18.5903 2.72953 18.3397 2.72953 18.2806 2.92566C17.4656 5.62251 15.426 6.59909 14.2219 6.94641C14.0344 6.99953 14.0344 7.26513 14.2219 7.32029C15.426 7.66761 17.4656 8.64215 18.2806 11.339Z" fill="#2EFFAA"/>
    </g>
    <defs>
        <clipPath id="clip0_297_77">
            <rect width="36" height="30" fill="white"/>
        </clipPath>
    </defs>
</svg>
