<svg width="163" height="26" viewBox="0 0 163 26" fill="none" xmlns="http://www.w3.org/2000/svg">
<g clip-path="url(#clip0_297_77)">
<path d="M35.0714 16.6774V9.07518C35.0714 7.11793 36.3998 6.24146 37.985 6.24146C39.5702 6.24146 40.8986 7.11793 40.8986 9.07518V17.0186C40.8986 18.9473 42.17 19.599 43.1317 19.599C44.0934 19.599 45.3383 18.9738 45.3933 17.1596V9.04862C45.3933 7.11997 46.6933 6.24146 48.2499 6.24146C49.8066 6.24146 51.135 7.11793 51.135 9.04862V23.965H46.6383L46.3265 22.1222C45.2792 23.5687 43.5555 24.4472 41.518 24.4472C37.9259 24.4472 35.0693 22.6595 35.0693 16.6754L35.0714 16.6774Z" fill="#F7F7F8"/>
<path d="M54.1812 23.965V9.07518C54.1812 7.20374 55.5381 6.24146 57.0377 6.24146C58.14 6.24146 59.1873 6.78082 59.6681 7.80031C60.7704 6.77878 62.2985 6.24146 63.7981 6.24146C67.3903 6.24146 70.2468 8.02709 70.2468 14.0133V23.965H64.4216V13.6721C64.4216 11.7434 63.1502 11.0917 62.1885 11.0917C61.2268 11.0917 59.9269 11.7434 59.9269 13.6721V23.965H54.1852H54.1812Z" fill="#F7F7F8"/>
<path d="M76.2616 0C77.8468 0 79.2038 0.737545 79.2038 2.61103C79.2038 4.48452 77.8468 5.22002 76.2616 5.22002C74.6765 5.22002 73.3215 4.48248 73.3215 2.61103C73.3215 0.739588 74.6785 0 76.2616 0ZM73.348 9.2755C73.348 7.31825 74.6785 6.43973 76.2616 6.43973C77.8448 6.43973 79.1753 7.32029 79.1753 9.2755V23.9651H73.3501V9.2755H73.348Z" fill="#F7F7F8"/>
<path d="M92.6614 23.9652H86.7791L81.2921 10.0131C80.6421 8.33984 81.7444 6.80755 83.2155 6.38259C84.7151 5.95559 86.3838 6.52356 86.9767 8.33984L89.8048 17.1025L92.5473 8.31328C93.0852 6.58281 94.6968 5.98828 96.1964 6.38463C97.6675 6.78099 98.6577 8.34189 98.0057 10.0417L92.6593 23.9652H92.6614Z" fill="#F7F7F8"/>
<path d="M99.4994 16.5918V14.0972C99.4994 8.05789 103.941 6.24365 107.56 6.24365C111.492 6.24365 115.365 7.77391 115.365 15.2883C115.365 15.7704 115.308 16.5652 115.225 17.0474H105.098V17.076C105.098 19.0046 106.965 19.6564 108.324 19.6564C109.683 19.6564 110.304 19.5419 111.066 19.2866C111.49 19.1456 111.914 18.9168 112.397 18.8616C113.358 18.7472 114.263 19.0884 114.63 19.9383C115.225 21.3276 114.546 22.5187 113.187 23.3134C112.283 23.8528 110.274 24.4494 108.21 24.4494C104.108 24.4494 99.4973 22.5207 99.4973 16.5918H99.4994ZM105.098 13.329H109.878C109.962 11.4575 108.831 10.8344 107.588 10.8344C106.345 10.8344 105.127 11.4596 105.098 13.329Z" fill="#F7F7F8"/>
<path d="M117.79 23.965V9.07518C117.79 7.20374 119.147 6.24146 120.646 6.24146C121.749 6.24146 122.796 6.78082 123.277 7.82891C124.324 6.83599 125.653 6.24146 127.038 6.24146C127.462 6.24146 127.943 6.29662 128.366 6.46619C129.442 6.92179 130.064 8.05569 129.866 9.38777C129.668 10.7198 128.65 11.5718 127.405 11.5718C127.009 11.5718 126.5 11.5432 126.105 11.5718C124.548 11.6862 123.615 12.5627 123.531 13.9806V23.963H117.79V23.965Z" fill="#F7F7F8"/>
<path d="M139.56 12.961C139.929 13.0182 140.296 13.104 140.636 13.1878C144.002 14.0398 145.671 16.138 145.245 19.5683C144.821 22.9148 141.624 24.4471 137.666 24.4471C135.742 24.4471 133.338 24.1059 131.895 22.9148C130.905 22.0935 130.424 20.7308 131.217 19.5397C131.612 18.9451 132.293 18.6898 133.026 18.6591C133.931 18.6305 134.383 19.0289 134.864 19.3109C135.459 19.6806 136.73 19.936 137.835 19.936C138.939 19.936 139.532 19.5111 139.589 18.9717C139.674 18.2914 138.344 17.9788 136.168 17.5252C135.771 17.4394 135.347 17.3536 135.009 17.2392C130.595 15.9071 130.2 12.3052 131.417 9.639C132.519 7.25475 135.292 6.2373 138.12 6.2373C140.382 6.2373 141.995 6.71742 142.983 7.28744C144.143 7.93917 144.992 9.10168 144.595 10.4072C144.257 11.4839 143.407 11.8537 142.388 11.8537C142.02 11.8537 141.455 11.6841 141.201 11.5125C140.522 11.0875 139.137 10.7463 138.203 10.7463C137.27 10.7463 136.732 11.1733 136.704 11.6535C136.647 12.3358 137.439 12.5606 139.56 12.9569V12.961Z" fill="#F7F7F8"/>
<path d="M147.132 16.5918V14.0972C147.132 8.05789 151.574 6.24365 155.192 6.24365C159.125 6.24365 162.998 7.77391 162.998 15.2883C162.998 15.7704 162.941 16.5652 162.857 17.0474H152.731V17.076C152.731 19.0046 154.597 19.6564 155.956 19.6564C157.315 19.6564 157.937 19.5419 158.699 19.2866C159.123 19.1456 159.546 18.9168 160.029 18.8616C160.991 18.7472 161.896 19.0884 162.262 19.9383C162.857 21.3276 162.179 22.5187 160.82 23.3134C159.915 23.8528 157.906 24.4494 155.842 24.4494C151.741 24.4494 147.13 22.5207 147.13 16.5918H147.132ZM152.733 13.329H157.513C157.597 11.4575 156.466 10.8344 155.223 10.8344C153.98 10.8344 152.762 11.4596 152.733 13.329Z" fill="#F7F7F8"/>
<path d="M28.5942 6.5499C27.8586 6.5499 27.2026 6.84818 26.6952 7.30583L26.6769 7.28744L26.5872 7.37938C26.5872 7.37938 26.5709 7.39572 26.5628 7.40389L15.1243 19.1311C14.0199 20.2629 14.0403 22.0772 15.1691 23.1845C16.2979 24.2918 18.1072 24.2714 19.2094 23.1396L25.7356 16.4485V23.9772H31.4507V9.41427C31.4507 7.83089 30.1712 6.54785 28.5921 6.54785L28.5942 6.5499Z" fill="#F7F7F8"/>
<path d="M15.3892 10.2869C14.2604 9.17955 12.4511 9.19998 11.3488 10.3318L0.814934 21.1315C-0.289391 22.2633 -0.269016 24.0775 0.859759 25.1828C1.98853 26.2902 3.79783 26.2698 4.90012 25.1379L15.434 14.3383C16.5383 13.2064 16.5179 11.3922 15.3892 10.2869Z" fill="#2EFFAA"/>
<path d="M18.2806 11.339C18.3397 11.5351 18.5903 11.5351 18.6494 11.339C19.4644 8.64215 21.5039 7.66557 22.7081 7.32029C22.8955 7.26513 22.8955 7.00157 22.7081 6.94641C21.5039 6.59909 19.4644 5.62251 18.6494 2.92566C18.5903 2.72953 18.3397 2.72953 18.2806 2.92566C17.4656 5.62251 15.426 6.59909 14.2219 6.94641C14.0344 6.99953 14.0344 7.26513 14.2219 7.32029C15.426 7.66761 17.4656 8.64215 18.2806 11.339Z" fill="#2EFFAA"/>
</g>
<defs>
<clipPath id="clip0_297_77">
<rect width="163" height="26" fill="white"/>
</clipPath>
</defs>
</svg>
